<svg version="1" xmlns="http://www.w3.org/2000/svg" width="682.667" height="682.667" viewBox="0 0 512.000000 512.000000"><path d="M236.5 55.7c-4.9.7-10.6 1.9-12.5 2.7-1.9.8-4.5 1.8-5.8 2.1-3.9 1.1-16.4 8.5-21.4 12.7-2.6 2.1-6.5 4.6-8.5 5.4-13.1 5.5-22.7 20.2-27.5 42.2-2.8 12.8-3 39.2-.4 52.7 3.5 18.6 11.3 39.3 19.2 51.5 1.6 2.5 3.1 5 3.4 5.7 1.4 3.3 16.9 19.8 22.8 24.2 9.8 7.4 22.4 13.7 31.6 16l3 .7-.3 10.9c-.1 6.1-.4 11.2-.6 11.4-.2.2-20.6.4-45.2.4-44 .1-51.5-.2-65.8-3.4-2.7-.6-6.9-2-9.2-3.2-5-2.5-7-1.6-5.4 2.4 2.1 5.7 18.8 13.2 37.6 16.9 3.3.6 8 1.6 10.5 2.1s16.2 1.6 30.5 2.5c14.3.9 30.6 1.9 36.2 2.2l10.2.7.3 64.5.4 64.5 2.2 5.1c1.3 2.8 3.9 6.6 5.9 8.5 3.1 2.9 4.4 3.4 8.4 3.4 4.1 0 5.2-.5 8.3-3.6 7.5-7.4 7.1-3.9 6.8-74.7-.3-64.6-.4-63.8 3-63.3 13.5 2 36.2 8.5 61.6 17.8 22.6 8.2 27.7 9 32.5 5 5.7-4.6 5.1-12.7-1.3-17.8-3.1-2.4-17.4-7.9-42-16.3-14.5-4.9-40.6-10.6-48.5-10.6-5.1 0-5.6-1.5-4.9-12.7l.7-10 6.6.5c8.7.6 24-2.1 35.9-6.3 16.5-5.9 33.3-17.2 44.3-29.6 15-17.1 21-27.9 24.9-44.5 2.3-9.6 2.5-15.9.9-27-4.2-30.4-17.4-58.8-36.2-78-14.9-15.3-33.5-25-59-30.8-20.1-4.6-35.6-5.4-53.2-2.9zm15.1 14.5c1.5 2.4 1.5 17.6-.1 43.8-2.1 35.7-3.5 51.4-4.6 52.1-.5.3-3.1.2-5.7-.3-2.6-.4-10.5-1.5-17.7-2.3-7.1-.8-16.1-1.9-20-2.4-3.8-.6-8.8-1.2-11-1.5-10.3-1.1-10.2-.9-10.9-9.3-2.8-33.3 4.4-60.7 17.6-67.4 2.5-1.3 3.8-2.6 3.8-3.9 0-2.4 5.2-5.2 14.7-7.9 8.2-2.4 32.6-3 33.9-.9zm23.8 4.8c40.1 11.3 60.9 28.1 74.5 60 6.4 15 8.4 24.1 8.5 39.5.1 15.3-.7 18.7-7.7 32-4.4 8.2-21 24.9-30.2 30.2-7.7 4.5-31.5 14.2-39 15.9-1.6.4-3.9 1.3-5 2-4.2 3-4.2 2.9-4.4-32.6l-.2-34h2.3c1.3 0 9.1 1.4 17.3 3.1 21.1 4.3 21.6 4.4 35.2 7.8 16.9 4.3 22.7 4 25.2-1.6 2.6-5.8-.2-11.6-7-14.2-6.6-2.5-37.6-9.5-54-12.2-10-1.6-18.6-3.2-19.1-3.5-.4-.3-.8-3.5-.8-7.2 0-8.9-2.5-37.2-4.6-51.2-1.3-9-3.7-22.1-5-27.5-1.9-8.4-1.8-9.5.9-9.5 1.3 0 7.2 1.4 13.1 3zm-78.8 94.3c10.5 4.1 24.7 8.4 38.9 11.7 5.5 1.3 10.3 2.6 10.6 2.9.4.3 0 7.8-.7 16.6-.8 8.8-1.8 23.4-2.4 32.5-.6 9-1.2 16.5-1.4 16.7-.1.2-1.8-.8-3.7-2.2-1.9-1.3-4.4-2.9-5.6-3.4-1.2-.6-5.4-3.3-9.2-6.1-15.1-11-27.5-29.7-34.9-52.5-4.3-13.4-5.2-23.4-1.9-20.6.7.5 5.3 2.5 10.3 4.4z"/><path d="M168.4 357.2c-4.3 3.4-13.8 12-21 19.2-17.9 17.7-20.7 23.9-14.1 31 4 4.2 7.6 5.2 12.7 3.7 6.4-1.9 13.6-12.3 21.9-31.6 6.4-14.9 10.1-22.4 11.1-23 .6-.3 1-1.7 1-3.1 0-4-3.2-2.9-11.6 3.8zM322.3 374.7c-3 .6-2.9 1.7.4 3.8 4.7 3.1 19 18.7 28.5 31 6.9 9 10.2 11.8 13.9 11.8 3.5 0 6.9-3.1 6.9-6.3 0-5-24.4-31.7-34-37.2-4.5-2.5-11.5-3.9-15.7-3.1z"/></svg>